<svg xmlns="http://www.w3.org/2000/svg" xmlns:xlink="http://www.w3.org/1999/xlink" width="500" zoomAndPan="magnify" viewBox="0 0 375 374.999991" height="500" preserveAspectRatio="xMidYMid meet" version="1.0"><defs><g/><clipPath id="59a17154af"><path d="M 93.527344 141 L 289 141 L 289 262.820312 L 93.527344 262.820312 Z M 93.527344 141 " clip-rule="nonzero"/></clipPath><clipPath id="c26f9af9b9"><path d="M 93.527344 106.820312 L 261 106.820312 L 261 207 L 93.527344 207 Z M 93.527344 106.820312 " clip-rule="nonzero"/></clipPath><clipPath id="5511aa6855"><path d="M 168.566406 172.710938 L 183.980469 172.710938 L 183.980469 207.945312 L 168.566406 207.945312 Z M 168.566406 172.710938 " clip-rule="nonzero"/></clipPath><clipPath id="4b42acea17"><path d="M 202.769531 197.257812 L 218.183594 197.257812 L 218.183594 232.492188 L 202.769531 232.492188 Z M 202.769531 197.257812 " clip-rule="nonzero"/></clipPath></defs><g clip-path="url(#59a17154af)"><path fill="#ffffff" d="M 288.960938 148.207031 C 288.960938 144.664062 286.074219 141.777344 282.53125 141.777344 L 127.496094 141.777344 C 123.933594 141.777344 121.058594 144.664062 121.058594 148.207031 L 93.617188 256.730469 C 93.617188 260.292969 96.507812 263.160156 100.0625 263.160156 L 255.105469 263.160156 C 258.648438 263.160156 261.535156 260.292969 261.535156 256.730469 Z M 288.960938 148.207031 " fill-opacity="1" fill-rule="nonzero"/></g><g clip-path="url(#c26f9af9b9)"><path fill="#ffffff" d="M 108.804688 146.304688 C 109.777344 136.824219 117.78125 129.421875 127.496094 129.421875 L 260.183594 129.421875 L 260.183594 124.25 C 260.183594 120.683594 257.3125 117.808594 253.753906 117.808594 L 171.027344 117.808594 L 171.027344 113.273438 C 171.027344 109.714844 168.152344 106.832031 164.578125 106.832031 L 99.96875 106.832031 C 96.410156 106.832031 93.527344 109.710938 93.527344 113.273438 L 93.527344 206.757812 Z M 108.804688 146.304688 " fill-opacity="1" fill-rule="nonzero"/></g><g fill="#000000" fill-opacity="1"><g transform="translate(140.19354, 236.431277)"><g><path d="M 53.972656 -44.890625 C 54.171875 -44.890625 54.300781 -44.890625 54.429688 -44.890625 C 56.328125 -44.890625 56.847656 -44.957031 57.175781 -46.394531 L 57.242188 -46.722656 C 59.464844 -59.660156 53.515625 -68.21875 37.441406 -68.21875 C 23.65625 -68.21875 12.023438 -59.203125 9.933594 -47.242188 C 8.429688 -38.617188 11.632812 -32.410156 18.164062 -28.230469 C 22.542969 -25.351562 32.148438 -23.589844 31.496094 -19.734375 C 31.167969 -17.902344 29.40625 -17.578125 27.902344 -17.578125 C 26.59375 -17.578125 25.027344 -18.035156 25.289062 -19.601562 L 25.417969 -20.320312 C 25.679688 -21.757812 25.09375 -22.414062 23.980469 -22.414062 L 8.757812 -22.414062 C 6.273438 -22.414062 4.769531 -21.957031 4.507812 -20.453125 L 4.445312 -20.257812 C 2.546875 -9.539062 3.855469 1.308594 25.550781 1.308594 C 40.382812 1.308594 51.554688 -7.121094 53.777344 -19.667969 C 55.148438 -27.445312 51.554688 -34.894531 42.082031 -39.792969 C 34.371094 -43.78125 31.429688 -43.847656 31.953125 -46.722656 C 32.148438 -48.160156 33.390625 -49.335938 35.21875 -49.335938 C 36.65625 -49.335938 37.703125 -48.679688 37.441406 -47.179688 L 37.375 -47.046875 C 37.179688 -45.675781 37.574219 -44.890625 39.273438 -44.890625 Z M 53.972656 -44.890625 "/></g></g></g><g fill="#000000" fill-opacity="1"><g transform="translate(183.593112, 236.431277)"><g><path d="M 53.972656 -44.890625 C 54.171875 -44.890625 54.300781 -44.890625 54.429688 -44.890625 C 56.328125 -44.890625 56.847656 -44.957031 57.175781 -46.394531 L 57.242188 -46.722656 C 59.464844 -59.660156 53.515625 -68.21875 37.441406 -68.21875 C 23.65625 -68.21875 12.023438 -59.203125 9.933594 -47.242188 C 8.429688 -38.617188 11.632812 -32.410156 18.164062 -28.230469 C 22.542969 -25.351562 32.148438 -23.589844 31.496094 -19.734375 C 31.167969 -17.902344 29.40625 -17.578125 27.902344 -17.578125 C 26.59375 -17.578125 25.027344 -18.035156 25.289062 -19.601562 L 25.417969 -20.320312 C 25.679688 -21.757812 25.09375 -22.414062 23.980469 -22.414062 L 8.757812 -22.414062 C 6.273438 -22.414062 4.769531 -21.957031 4.507812 -20.453125 L 4.445312 -20.257812 C 2.546875 -9.539062 3.855469 1.308594 25.550781 1.308594 C 40.382812 1.308594 51.554688 -7.121094 53.777344 -19.667969 C 55.148438 -27.445312 51.554688 -34.894531 42.082031 -39.792969 C 34.371094 -43.78125 31.429688 -43.847656 31.953125 -46.722656 C 32.148438 -48.160156 33.390625 -49.335938 35.21875 -49.335938 C 36.65625 -49.335938 37.703125 -48.679688 37.441406 -47.179688 L 37.375 -47.046875 C 37.179688 -45.675781 37.574219 -44.890625 39.273438 -44.890625 Z M 53.972656 -44.890625 "/></g></g></g><g clip-path="url(#5511aa6855)"><path fill="#ffffff" d="M 179.945312 172.710938 L 168.566406 195.890625 L 174.929688 195.929688 L 173.300781 208.007812 L 183.980469 189.730469 L 177.511719 189.53125 L 179.945312 172.710938 " fill-opacity="1" fill-rule="nonzero"/></g><g clip-path="url(#4b42acea17)"><path fill="#ffffff" d="M 214.148438 197.257812 L 202.769531 220.441406 L 209.132812 220.480469 L 207.507812 232.558594 L 218.183594 214.28125 L 211.714844 214.082031 L 214.148438 197.257812 " fill-opacity="1" fill-rule="nonzero"/></g><g fill="#0f0707" fill-opacity="1"><g transform="translate(88.732016, 306.699765)"><g><path d="M 4.015625 0.09375 C 3.367188 0.09375 2.785156 -0.0078125 2.265625 -0.21875 C 1.742188 -0.4375 1.328125 -0.753906 1.015625 -1.171875 C 0.710938 -1.585938 0.550781 -2.085938 0.53125 -2.671875 L 2.84375 -2.671875 C 2.882812 -2.335938 3 -2.082031 3.1875 -1.90625 C 3.382812 -1.738281 3.640625 -1.65625 3.953125 -1.65625 C 4.273438 -1.65625 4.53125 -1.726562 4.71875 -1.875 C 4.90625 -2.019531 5 -2.226562 5 -2.5 C 5 -2.71875 4.921875 -2.894531 4.765625 -3.03125 C 4.617188 -3.175781 4.4375 -3.296875 4.21875 -3.390625 C 4.007812 -3.484375 3.707031 -3.59375 3.3125 -3.71875 C 2.726562 -3.894531 2.253906 -4.070312 1.890625 -4.25 C 1.523438 -4.425781 1.210938 -4.6875 0.953125 -5.03125 C 0.691406 -5.382812 0.5625 -5.835938 0.5625 -6.390625 C 0.5625 -7.222656 0.859375 -7.875 1.453125 -8.34375 C 2.054688 -8.820312 2.84375 -9.0625 3.8125 -9.0625 C 4.800781 -9.0625 5.59375 -8.820312 6.1875 -8.34375 C 6.789062 -7.875 7.113281 -7.222656 7.15625 -6.390625 L 4.8125 -6.390625 C 4.789062 -6.671875 4.679688 -6.894531 4.484375 -7.0625 C 4.296875 -7.226562 4.046875 -7.3125 3.734375 -7.3125 C 3.472656 -7.3125 3.257812 -7.238281 3.09375 -7.09375 C 2.9375 -6.957031 2.859375 -6.757812 2.859375 -6.5 C 2.859375 -6.207031 2.992188 -5.976562 3.265625 -5.8125 C 3.535156 -5.65625 3.960938 -5.484375 4.546875 -5.296875 C 5.117188 -5.109375 5.582031 -4.925781 5.9375 -4.75 C 6.300781 -4.570312 6.613281 -4.3125 6.875 -3.96875 C 7.144531 -3.625 7.28125 -3.1875 7.28125 -2.65625 C 7.28125 -2.144531 7.148438 -1.679688 6.890625 -1.265625 C 6.628906 -0.859375 6.253906 -0.53125 5.765625 -0.28125 C 5.273438 -0.03125 4.691406 0.09375 4.015625 0.09375 Z M 4.015625 0.09375 "/></g></g></g><g fill="#0f0707" fill-opacity="1"><g transform="translate(96.544439, 306.699765)"><g><path d="M 13.078125 -8.921875 L 10.75 0 L 8.109375 0 L 6.6875 -5.875 L 5.21875 0 L 2.578125 0 L 0.3125 -8.921875 L 2.640625 -8.921875 L 3.9375 -2.421875 L 5.515625 -8.921875 L 7.90625 -8.921875 L 9.4375 -2.421875 L 10.734375 -8.921875 Z M 13.078125 -8.921875 "/></g></g></g><g fill="#0f0707" fill-opacity="1"><g transform="translate(109.908116, 306.699765)"><g><path d="M 7.21875 -8.921875 L 7.21875 -7.1875 L 4.84375 -7.1875 L 4.84375 0 L 2.671875 0 L 2.671875 -7.1875 L 0.3125 -7.1875 L 0.3125 -8.921875 Z M 7.21875 -8.921875 "/></g></g></g><g fill="#0f0707" fill-opacity="1"><g transform="translate(117.415657, 306.699765)"><g><path d="M 8.515625 -8.921875 L 8.515625 0 L 6.34375 0 L 6.34375 -3.671875 L 2.96875 -3.671875 L 2.96875 0 L 0.78125 0 L 0.78125 -8.921875 L 2.96875 -8.921875 L 2.96875 -5.4375 L 6.34375 -5.4375 L 6.34375 -8.921875 Z M 8.515625 -8.921875 "/></g></g></g><g fill="#0f0707" fill-opacity="1"><g transform="translate(126.701633, 306.699765)"><g><path d="M 4.015625 0.09375 C 3.367188 0.09375 2.785156 -0.0078125 2.265625 -0.21875 C 1.742188 -0.4375 1.328125 -0.753906 1.015625 -1.171875 C 0.710938 -1.585938 0.550781 -2.085938 0.53125 -2.671875 L 2.84375 -2.671875 C 2.882812 -2.335938 3 -2.082031 3.1875 -1.90625 C 3.382812 -1.738281 3.640625 -1.65625 3.953125 -1.65625 C 4.273438 -1.65625 4.53125 -1.726562 4.71875 -1.875 C 4.90625 -2.019531 5 -2.226562 5 -2.5 C 5 -2.71875 4.921875 -2.894531 4.765625 -3.03125 C 4.617188 -3.175781 4.4375 -3.296875 4.21875 -3.390625 C 4.007812 -3.484375 3.707031 -3.59375 3.3125 -3.71875 C 2.726562 -3.894531 2.253906 -4.070312 1.890625 -4.25 C 1.523438 -4.425781 1.210938 -4.6875 0.953125 -5.03125 C 0.691406 -5.382812 0.5625 -5.835938 0.5625 -6.390625 C 0.5625 -7.222656 0.859375 -7.875 1.453125 -8.34375 C 2.054688 -8.820312 2.84375 -9.0625 3.8125 -9.0625 C 4.800781 -9.0625 5.59375 -8.820312 6.1875 -8.34375 C 6.789062 -7.875 7.113281 -7.222656 7.15625 -6.390625 L 4.8125 -6.390625 C 4.789062 -6.671875 4.679688 -6.894531 4.484375 -7.0625 C 4.296875 -7.226562 4.046875 -7.3125 3.734375 -7.3125 C 3.472656 -7.3125 3.257812 -7.238281 3.09375 -7.09375 C 2.9375 -6.957031 2.859375 -6.757812 2.859375 -6.5 C 2.859375 -6.207031 2.992188 -5.976562 3.265625 -5.8125 C 3.535156 -5.65625 3.960938 -5.484375 4.546875 -5.296875 C 5.117188 -5.109375 5.582031 -4.925781 5.9375 -4.75 C 6.300781 -4.570312 6.613281 -4.3125 6.875 -3.96875 C 7.144531 -3.625 7.28125 -3.1875 7.28125 -2.65625 C 7.28125 -2.144531 7.148438 -1.679688 6.890625 -1.265625 C 6.628906 -0.859375 6.253906 -0.53125 5.765625 -0.28125 C 5.273438 -0.03125 4.691406 0.09375 4.015625 0.09375 Z M 4.015625 0.09375 "/></g></g></g><g fill="#0f0707" fill-opacity="1"><g transform="translate(134.514056, 306.699765)"><g><path d="M 2.96875 -7.1875 L 2.96875 -5.375 L 5.875 -5.375 L 5.875 -3.703125 L 2.96875 -3.703125 L 2.96875 -1.75 L 6.25 -1.75 L 6.25 0 L 0.78125 0 L 0.78125 -8.921875 L 6.25 -8.921875 L 6.25 -7.1875 Z M 2.96875 -7.1875 "/></g></g></g><g fill="#0f0707" fill-opacity="1"><g transform="translate(141.386438, 306.699765)"><g><path d="M 6.1875 -4.578125 C 6.707031 -4.460938 7.125 -4.203125 7.4375 -3.796875 C 7.75 -3.398438 7.90625 -2.941406 7.90625 -2.421875 C 7.90625 -1.679688 7.644531 -1.09375 7.125 -0.65625 C 6.601562 -0.21875 5.878906 0 4.953125 0 L 0.78125 0 L 0.78125 -8.921875 L 4.8125 -8.921875 C 5.71875 -8.921875 6.425781 -8.710938 6.9375 -8.296875 C 7.445312 -7.890625 7.703125 -7.328125 7.703125 -6.609375 C 7.703125 -6.085938 7.5625 -5.648438 7.28125 -5.296875 C 7.007812 -4.953125 6.644531 -4.710938 6.1875 -4.578125 Z M 2.96875 -5.3125 L 4.390625 -5.3125 C 4.742188 -5.3125 5.015625 -5.390625 5.203125 -5.546875 C 5.398438 -5.703125 5.5 -5.9375 5.5 -6.25 C 5.5 -6.550781 5.398438 -6.78125 5.203125 -6.9375 C 5.015625 -7.101562 4.742188 -7.1875 4.390625 -7.1875 L 2.96875 -7.1875 Z M 4.5625 -1.75 C 4.925781 -1.75 5.207031 -1.832031 5.40625 -2 C 5.601562 -2.164062 5.703125 -2.40625 5.703125 -2.71875 C 5.703125 -3.03125 5.597656 -3.273438 5.390625 -3.453125 C 5.191406 -3.640625 4.910156 -3.734375 4.546875 -3.734375 L 2.96875 -3.734375 L 2.96875 -1.75 Z M 4.5625 -1.75 "/></g></g></g><g fill="#0f0707" fill-opacity="1"><g transform="translate(149.757791, 306.699765)"><g><path d="M 6.34375 -1.578125 L 3.015625 -1.578125 L 2.484375 0 L 0.203125 0 L 3.4375 -8.921875 L 5.953125 -8.921875 L 9.1875 0 L 6.875 0 Z M 5.78125 -3.25 L 4.6875 -6.53125 L 3.59375 -3.25 Z M 5.78125 -3.25 "/></g></g></g><g fill="#0f0707" fill-opacity="1"><g transform="translate(159.119996, 306.699765)"><g><path d="M 4.015625 0.09375 C 3.367188 0.09375 2.785156 -0.0078125 2.265625 -0.21875 C 1.742188 -0.4375 1.328125 -0.753906 1.015625 -1.171875 C 0.710938 -1.585938 0.550781 -2.085938 0.53125 -2.671875 L 2.84375 -2.671875 C 2.882812 -2.335938 3 -2.082031 3.1875 -1.90625 C 3.382812 -1.738281 3.640625 -1.65625 3.953125 -1.65625 C 4.273438 -1.65625 4.53125 -1.726562 4.71875 -1.875 C 4.90625 -2.019531 5 -2.226562 5 -2.5 C 5 -2.71875 4.921875 -2.894531 4.765625 -3.03125 C 4.617188 -3.175781 4.4375 -3.296875 4.21875 -3.390625 C 4.007812 -3.484375 3.707031 -3.59375 3.3125 -3.71875 C 2.726562 -3.894531 2.253906 -4.070312 1.890625 -4.25 C 1.523438 -4.425781 1.210938 -4.6875 0.953125 -5.03125 C 0.691406 -5.382812 0.5625 -5.835938 0.5625 -6.390625 C 0.5625 -7.222656 0.859375 -7.875 1.453125 -8.34375 C 2.054688 -8.820312 2.84375 -9.0625 3.8125 -9.0625 C 4.800781 -9.0625 5.59375 -8.820312 6.1875 -8.34375 C 6.789062 -7.875 7.113281 -7.222656 7.15625 -6.390625 L 4.8125 -6.390625 C 4.789062 -6.671875 4.679688 -6.894531 4.484375 -7.0625 C 4.296875 -7.226562 4.046875 -7.3125 3.734375 -7.3125 C 3.472656 -7.3125 3.257812 -7.238281 3.09375 -7.09375 C 2.9375 -6.957031 2.859375 -6.757812 2.859375 -6.5 C 2.859375 -6.207031 2.992188 -5.976562 3.265625 -5.8125 C 3.535156 -5.65625 3.960938 -5.484375 4.546875 -5.296875 C 5.117188 -5.109375 5.582031 -4.925781 5.9375 -4.75 C 6.300781 -4.570312 6.613281 -4.3125 6.875 -3.96875 C 7.144531 -3.625 7.28125 -3.1875 7.28125 -2.65625 C 7.28125 -2.144531 7.148438 -1.679688 6.890625 -1.265625 C 6.628906 -0.859375 6.253906 -0.53125 5.765625 -0.28125 C 5.273438 -0.03125 4.691406 0.09375 4.015625 0.09375 Z M 4.015625 0.09375 "/></g></g></g><g fill="#0f0707" fill-opacity="1"><g transform="translate(166.932419, 306.699765)"><g><path d="M 7.21875 -8.921875 L 7.21875 -7.1875 L 4.84375 -7.1875 L 4.84375 0 L 2.671875 0 L 2.671875 -7.1875 L 0.3125 -7.1875 L 0.3125 -8.921875 Z M 7.21875 -8.921875 "/></g></g></g><g fill="#0f0707" fill-opacity="1"><g transform="translate(174.43996, 306.699765)"><g><path d="M 2.96875 -8.921875 L 2.96875 0 L 0.78125 0 L 0.78125 -8.921875 Z M 2.96875 -8.921875 "/></g></g></g><g fill="#0f0707" fill-opacity="1"><g transform="translate(178.187385, 306.699765)"><g><path d="M 6.34375 -1.578125 L 3.015625 -1.578125 L 2.484375 0 L 0.203125 0 L 3.4375 -8.921875 L 5.953125 -8.921875 L 9.1875 0 L 6.875 0 Z M 5.78125 -3.25 L 4.6875 -6.53125 L 3.59375 -3.25 Z M 5.78125 -3.25 "/></g></g></g><g fill="#0f0707" fill-opacity="1"><g transform="translate(187.54959, 306.699765)"><g><path d="M 8.78125 0 L 6.59375 0 L 2.96875 -5.5 L 2.96875 0 L 0.78125 0 L 0.78125 -8.921875 L 2.96875 -8.921875 L 6.59375 -3.390625 L 6.59375 -8.921875 L 8.78125 -8.921875 Z M 8.78125 0 "/></g></g></g><g fill="#0f0707" fill-opacity="1"><g transform="translate(197.102339, 306.699765)"><g><path d="M 7.859375 -8.5 C 8.859375 -8.5 9.726562 -8.304688 10.46875 -7.921875 C 11.21875 -7.546875 11.796875 -7.015625 12.203125 -6.328125 C 12.609375 -5.648438 12.8125 -4.867188 12.8125 -3.984375 C 12.8125 -3.265625 12.6875 -2.59375 12.4375 -1.96875 C 12.1875 -1.351562 11.816406 -0.859375 11.328125 -0.484375 C 10.835938 -0.117188 10.257812 0.0625 9.59375 0.0625 C 9.144531 0.0625 8.769531 -0.0234375 8.46875 -0.203125 C 8.175781 -0.378906 7.984375 -0.628906 7.890625 -0.953125 C 7.648438 -0.617188 7.34375 -0.359375 6.96875 -0.171875 C 6.59375 0.00390625 6.1875 0.09375 5.75 0.09375 C 5.125 0.09375 4.628906 -0.09375 4.265625 -0.46875 C 3.910156 -0.851562 3.734375 -1.367188 3.734375 -2.015625 C 3.734375 -2.640625 3.859375 -3.222656 4.109375 -3.765625 C 4.359375 -4.316406 4.707031 -4.753906 5.15625 -5.078125 C 5.613281 -5.410156 6.117188 -5.578125 6.671875 -5.578125 C 7.390625 -5.578125 7.875 -5.328125 8.125 -4.828125 L 8.234375 -5.5 L 10 -5.5 L 9.4375 -2.296875 C 9.414062 -2.148438 9.40625 -2.015625 9.40625 -1.890625 C 9.40625 -1.515625 9.566406 -1.328125 9.890625 -1.328125 C 10.296875 -1.328125 10.609375 -1.585938 10.828125 -2.109375 C 11.046875 -2.640625 11.15625 -3.242188 11.15625 -3.921875 C 11.15625 -4.890625 10.847656 -5.648438 10.234375 -6.203125 C 9.617188 -6.753906 8.753906 -7.03125 7.640625 -7.03125 C 6.691406 -7.03125 5.828125 -6.800781 5.046875 -6.34375 C 4.273438 -5.882812 3.664062 -5.257812 3.21875 -4.46875 C 2.78125 -3.675781 2.5625 -2.804688 2.5625 -1.859375 C 2.5625 -0.828125 2.859375 -0.03125 3.453125 0.53125 C 4.054688 1.101562 4.898438 1.390625 5.984375 1.390625 C 6.816406 1.390625 7.566406 1.234375 8.234375 0.921875 L 8.578125 2.3125 C 7.742188 2.675781 6.8125 2.859375 5.78125 2.859375 C 4.8125 2.859375 3.957031 2.671875 3.21875 2.296875 C 2.488281 1.929688 1.921875 1.40625 1.515625 0.71875 C 1.117188 0.03125 0.921875 -0.769531 0.921875 -1.6875 C 0.921875 -2.96875 1.222656 -4.128906 1.828125 -5.171875 C 2.429688 -6.210938 3.257812 -7.023438 4.3125 -7.609375 C 5.375 -8.203125 6.554688 -8.5 7.859375 -8.5 Z M 6.46875 -1.46875 C 6.695312 -1.46875 6.914062 -1.539062 7.125 -1.6875 C 7.332031 -1.832031 7.5 -2.023438 7.625 -2.265625 C 7.75 -2.503906 7.8125 -2.765625 7.8125 -3.046875 C 7.8125 -3.335938 7.726562 -3.570312 7.5625 -3.75 C 7.40625 -3.9375 7.1875 -4.03125 6.90625 -4.03125 C 6.53125 -4.03125 6.21875 -3.867188 5.96875 -3.546875 C 5.726562 -3.222656 5.609375 -2.84375 5.609375 -2.40625 C 5.609375 -2.125 5.679688 -1.894531 5.828125 -1.71875 C 5.972656 -1.550781 6.1875 -1.46875 6.46875 -1.46875 Z M 6.46875 -1.46875 "/></g></g></g><g fill="#0f0707" fill-opacity="1"><g transform="translate(210.82171, 306.699765)"><g><path d="M 6.71875 -6.109375 C 6.550781 -6.398438 6.316406 -6.625 6.015625 -6.78125 C 5.722656 -6.9375 5.367188 -7.015625 4.953125 -7.015625 C 4.253906 -7.015625 3.691406 -6.785156 3.265625 -6.328125 C 2.835938 -5.867188 2.625 -5.253906 2.625 -4.484375 C 2.625 -3.660156 2.847656 -3.015625 3.296875 -2.546875 C 3.742188 -2.085938 4.359375 -1.859375 5.140625 -1.859375 C 5.671875 -1.859375 6.117188 -1.992188 6.484375 -2.265625 C 6.859375 -2.535156 7.128906 -2.925781 7.296875 -3.4375 L 4.546875 -3.4375 L 4.546875 -5.03125 L 9.265625 -5.03125 L 9.265625 -3.015625 C 9.109375 -2.472656 8.835938 -1.96875 8.453125 -1.5 C 8.066406 -1.03125 7.578125 -0.648438 6.984375 -0.359375 C 6.390625 -0.078125 5.71875 0.0625 4.96875 0.0625 C 4.09375 0.0625 3.304688 -0.128906 2.609375 -0.515625 C 1.921875 -0.898438 1.382812 -1.4375 1 -2.125 C 0.613281 -2.8125 0.421875 -3.597656 0.421875 -4.484375 C 0.421875 -5.359375 0.613281 -6.140625 1 -6.828125 C 1.382812 -7.523438 1.921875 -8.066406 2.609375 -8.453125 C 3.296875 -8.835938 4.078125 -9.03125 4.953125 -9.03125 C 6.023438 -9.03125 6.925781 -8.769531 7.65625 -8.25 C 8.394531 -7.738281 8.882812 -7.023438 9.125 -6.109375 Z M 6.71875 -6.109375 "/></g></g></g><g fill="#0f0707" fill-opacity="1"><g transform="translate(220.501489, 306.699765)"><g><path d="M 10.90625 -8.921875 L 10.90625 0 L 8.71875 0 L 8.71875 -5.359375 L 6.734375 0 L 4.96875 0 L 2.96875 -5.375 L 2.96875 0 L 0.78125 0 L 0.78125 -8.921875 L 3.359375 -8.921875 L 5.859375 -2.75 L 8.34375 -8.921875 Z M 10.90625 -8.921875 "/></g></g></g><g fill="#0f0707" fill-opacity="1"><g transform="translate(232.162949, 306.699765)"><g><path d="M 6.34375 -1.578125 L 3.015625 -1.578125 L 2.484375 0 L 0.203125 0 L 3.4375 -8.921875 L 5.953125 -8.921875 L 9.1875 0 L 6.875 0 Z M 5.78125 -3.25 L 4.6875 -6.53125 L 3.59375 -3.25 Z M 5.78125 -3.25 "/></g></g></g><g fill="#0f0707" fill-opacity="1"><g transform="translate(241.525154, 306.699765)"><g><path d="M 2.96875 -8.921875 L 2.96875 0 L 0.78125 0 L 0.78125 -8.921875 Z M 2.96875 -8.921875 "/></g></g></g><g fill="#0f0707" fill-opacity="1"><g transform="translate(245.272578, 306.699765)"><g><path d="M 2.96875 -1.671875 L 5.8125 -1.671875 L 5.8125 0 L 0.78125 0 L 0.78125 -8.921875 L 2.96875 -8.921875 Z M 2.96875 -1.671875 "/></g></g></g><g fill="#0f0707" fill-opacity="1"><g transform="translate(251.331961, 306.699765)"><g><path d="M 1.8125 0.109375 C 1.425781 0.109375 1.113281 -0.00390625 0.875 -0.234375 C 0.632812 -0.460938 0.515625 -0.738281 0.515625 -1.0625 C 0.515625 -1.40625 0.632812 -1.691406 0.875 -1.921875 C 1.113281 -2.148438 1.425781 -2.265625 1.8125 -2.265625 C 2.175781 -2.265625 2.476562 -2.148438 2.71875 -1.921875 C 2.96875 -1.691406 3.09375 -1.40625 3.09375 -1.0625 C 3.09375 -0.738281 2.96875 -0.460938 2.71875 -0.234375 C 2.476562 -0.00390625 2.175781 0.109375 1.8125 0.109375 Z M 1.8125 0.109375 "/></g></g></g><g fill="#0f0707" fill-opacity="1"><g transform="translate(254.914237, 306.699765)"><g><path d="M 0.421875 -4.484375 C 0.421875 -5.359375 0.609375 -6.140625 0.984375 -6.828125 C 1.367188 -7.523438 1.898438 -8.066406 2.578125 -8.453125 C 3.265625 -8.835938 4.039062 -9.03125 4.90625 -9.03125 C 5.96875 -9.03125 6.875 -8.75 7.625 -8.1875 C 8.382812 -7.625 8.890625 -6.863281 9.140625 -5.90625 L 6.75 -5.90625 C 6.570312 -6.28125 6.316406 -6.5625 5.984375 -6.75 C 5.660156 -6.945312 5.296875 -7.046875 4.890625 -7.046875 C 4.210938 -7.046875 3.664062 -6.8125 3.25 -6.34375 C 2.832031 -5.875 2.625 -5.253906 2.625 -4.484375 C 2.625 -3.703125 2.832031 -3.078125 3.25 -2.609375 C 3.664062 -2.140625 4.210938 -1.90625 4.890625 -1.90625 C 5.296875 -1.90625 5.660156 -2.003906 5.984375 -2.203125 C 6.316406 -2.398438 6.570312 -2.679688 6.75 -3.046875 L 9.140625 -3.046875 C 8.890625 -2.085938 8.382812 -1.328125 7.625 -0.765625 C 6.875 -0.210938 5.96875 0.0625 4.90625 0.0625 C 4.039062 0.0625 3.265625 -0.128906 2.578125 -0.515625 C 1.898438 -0.898438 1.367188 -1.4375 0.984375 -2.125 C 0.609375 -2.8125 0.421875 -3.597656 0.421875 -4.484375 Z M 0.421875 -4.484375 "/></g></g></g><g fill="#0f0707" fill-opacity="1"><g transform="translate(264.594015, 306.699765)"><g><path d="M 5.015625 0.09375 C 4.171875 0.09375 3.398438 -0.0976562 2.703125 -0.484375 C 2.003906 -0.878906 1.445312 -1.425781 1.03125 -2.125 C 0.625 -2.820312 0.421875 -3.609375 0.421875 -4.484375 C 0.421875 -5.359375 0.625 -6.144531 1.03125 -6.84375 C 1.445312 -7.539062 2.003906 -8.082031 2.703125 -8.46875 C 3.398438 -8.863281 4.171875 -9.0625 5.015625 -9.0625 C 5.847656 -9.0625 6.613281 -8.863281 7.3125 -8.46875 C 8.019531 -8.082031 8.570312 -7.539062 8.96875 -6.84375 C 9.375 -6.144531 9.578125 -5.359375 9.578125 -4.484375 C 9.578125 -3.609375 9.375 -2.820312 8.96875 -2.125 C 8.5625 -1.425781 8.007812 -0.878906 7.3125 -0.484375 C 6.613281 -0.0976562 5.847656 0.09375 5.015625 0.09375 Z M 5.015625 -1.890625 C 5.722656 -1.890625 6.289062 -2.125 6.71875 -2.59375 C 7.144531 -3.070312 7.359375 -3.703125 7.359375 -4.484375 C 7.359375 -5.273438 7.144531 -5.90625 6.71875 -6.375 C 6.289062 -6.84375 5.722656 -7.078125 5.015625 -7.078125 C 4.296875 -7.078125 3.71875 -6.84375 3.28125 -6.375 C 2.851562 -5.914062 2.640625 -5.285156 2.640625 -4.484375 C 2.640625 -3.703125 2.851562 -3.070312 3.28125 -2.59375 C 3.71875 -2.125 4.296875 -1.890625 5.015625 -1.890625 Z M 5.015625 -1.890625 "/></g></g></g><g fill="#0f0707" fill-opacity="1"><g transform="translate(274.578664, 306.699765)"><g><path d="M 10.90625 -8.921875 L 10.90625 0 L 8.71875 0 L 8.71875 -5.359375 L 6.734375 0 L 4.96875 0 L 2.96875 -5.375 L 2.96875 0 L 0.78125 0 L 0.78125 -8.921875 L 3.359375 -8.921875 L 5.859375 -2.75 L 8.34375 -8.921875 Z M 10.90625 -8.921875 "/></g></g></g></svg>