<svg version="1.1" id="Layer_1" xmlns="http://www.w3.org/2000/svg" xmlns:xlink="http://www.w3.org/1999/xlink" x="0px" y="0px"
	 width="100%" viewBox="0 0 1920 1080" enable-background="new 0 0 1920 1080" xml:space="preserve">
<path fill="#FFFFFF" opacity="1.000000" stroke="none" 
	d="
M1384.000000,1081.000000 
	C922.666748,1081.000000 461.833496,1081.000000 1.000185,1081.000000 
	C1.000124,721.000122 1.000124,361.000305 1.000062,1.000330 
	C640.999756,1.000220 1280.999512,1.000220 1920.999512,1.000110 
	C1920.999634,360.999664 1920.999634,720.999329 1920.999756,1080.999512 
	C1742.166626,1081.000000 1563.333374,1081.000000 1384.000000,1081.000000 
M975.500793,109.073105 
	C975.318665,109.100189 975.136536,109.127274 974.030212,109.031410 
	C950.774170,110.115898 927.438416,110.351059 904.284729,112.525192 
	C881.410095,114.673126 858.653198,118.378334 835.963318,122.120026 
	C799.009094,128.213989 762.898987,137.984741 727.621948,150.377304 
	C704.506042,158.497772 681.940002,168.272034 659.425049,177.994141 
	C626.917480,192.031067 596.004700,209.185150 566.281921,228.382477 
	C551.542969,237.902069 537.310303,248.226334 523.085022,258.513550 
	C512.803467,265.948792 502.711548,273.679230 492.905365,281.729218 
	C484.155334,288.912170 475.746094,296.535980 467.491150,304.289551 
	C458.202332,313.014191 449.254700,322.102051 439.497650,331.204895 
	C435.935760,334.699066 432.161652,338.004089 428.849365,341.720642 
	C415.712524,356.460999 402.294067,370.981201 389.791534,386.247589 
	C376.790100,402.123230 364.291473,418.455139 352.340424,435.137329 
	C326.615631,471.046021 305.134277,509.524841 286.489288,549.483887 
	C273.980133,576.292908 262.943237,603.807129 254.308670,632.180908 
	C249.753036,647.151062 245.156464,662.119324 241.108841,677.230530 
	C237.428406,690.970886 234.127960,704.834778 231.288361,718.772217 
	C228.795990,731.005432 227.086945,743.402832 225.200607,755.753418 
	C223.970703,763.805969 222.952789,771.894043 222.003571,779.985413 
	C220.998657,788.551697 220.065506,797.130310 219.329483,805.723083 
	C218.710388,812.950928 218.158417,820.202698 218.040466,827.451416 
	C217.833923,840.144287 217.982849,852.843018 217.982849,865.674438 
	C343.870758,865.674438 470.072906,865.674438 595.849609,865.674438 
	C596.907776,851.445923 597.219360,837.474487 599.151672,823.730957 
	C601.605713,806.277344 604.531006,788.799866 608.760742,771.705750 
	C616.390930,740.869263 628.351135,711.601624 643.957703,683.880981 
	C655.991699,662.506042 669.519836,642.152710 685.699463,623.658875 
	C693.013794,615.298340 700.553833,607.135315 708.605896,598.659180 
	C721.875916,587.124084 734.634583,574.927490 748.523071,564.192566 
	C776.828125,542.314453 808.012512,525.295532 841.626648,512.993286 
	C865.813904,504.141083 890.408813,496.591827 916.195679,493.883575 
	C932.842773,492.135284 949.503662,490.517670 966.159973,488.857910 
	C969.116943,488.563263 972.081909,488.349060 975.905823,488.471130 
	C983.494385,488.979645 991.097839,489.327789 998.668091,490.032898 
	C1011.192993,491.199493 1023.845398,491.795105 1036.173462,494.086945 
	C1053.884888,497.379425 1071.711426,500.856995 1088.829102,506.322235 
	C1107.415771,512.256592 1125.584351,519.828186 1143.314819,528.027344 
	C1162.353149,536.831360 1180.408447,547.646790 1197.063965,560.545959 
	C1207.097046,568.316223 1216.994385,576.269348 1226.776367,584.353577 
	C1232.361816,588.969482 1237.593262,594.013489 1243.213989,599.508911 
	C1316.665527,673.050171 1352.480835,762.514465 1355.109985,865.656494 
	C1482.059692,865.656494 1608.281372,865.656494 1734.771606,865.656494 
	C1734.170532,852.715454 1733.795776,840.113403 1732.950806,827.542908 
	C1731.761597,809.855347 1731.210815,792.044312 1728.607544,774.550903 
	C1724.514648,747.047485 1719.857422,719.559448 1713.797119,692.431763 
	C1701.511719,637.438843 1682.178589,584.801880 1657.353271,534.232300 
	C1635.036255,488.771790 1608.579712,445.891693 1577.506592,405.802765 
	C1557.046021,379.405609 1535.090820,354.410095 1511.510376,330.084839 
	C1499.988037,319.539337 1488.762695,308.644440 1476.870361,298.534119 
	C1460.968994,285.015564 1445.109131,271.331696 1428.213013,259.129120 
	C1406.915283,243.747742 1384.880981,229.326843 1362.638428,215.327286 
	C1330.907593,195.355820 1297.258057,178.830185 1262.363525,165.321960 
	C1233.186890,154.027191 1203.345093,144.286896 1173.383545,135.228790 
	C1142.550781,125.907310 1110.786133,120.334457 1078.854492,116.087158 
	C1065.407104,114.298470 1051.878174,112.905655 1038.340942,112.058601 
	C1017.597046,110.760612 996.813843,110.090279 975.500793,109.073105 
M928.024475,772.539490 
	C927.084656,773.883728 926.206299,775.276184 925.195435,776.564636 
	C914.420776,790.297363 903.300964,803.773865 892.927795,817.802734 
	C882.846130,831.437195 878.088562,847.398499 876.210205,864.020935 
	C875.407166,871.127014 876.049011,878.608948 877.332581,885.684631 
	C878.950195,894.601685 881.114746,903.586548 884.436951,911.991333 
	C890.658508,927.731262 901.281555,940.317139 914.519348,950.932434 
	C930.999268,964.147583 949.962402,970.669983 970.632935,971.838684 
	C989.431641,972.901672 1007.223022,968.064697 1023.564392,958.657776 
	C1045.014282,946.310181 1060.704468,928.926819 1067.978882,904.929321 
	C1076.124390,878.058289 1078.101440,850.139404 1080.939697,822.405701 
	C1082.306030,809.055054 1083.143188,795.645691 1084.008057,782.249268 
	C1085.429932,760.226013 1086.718872,738.193848 1087.980713,716.160706 
	C1088.446045,708.037109 1088.655640,699.899170 1089.016724,691.769348 
	C1089.959961,670.535095 1090.966309,649.303528 1091.845703,628.066711 
	C1092.060059,622.887512 1090.164917,618.600891 1085.211060,616.282471 
	C1080.546509,614.099365 1075.281372,615.233032 1071.215820,619.434265 
	C1066.609741,624.194275 1062.334106,629.275269 1057.705566,634.012329 
	C1042.262329,649.817444 1026.616699,665.425903 1011.264221,681.318054 
	C1001.605408,691.316284 992.360229,701.713196 982.874756,711.880249 
	C977.801636,717.317932 972.580566,722.617310 967.485657,728.034851 
	C962.954285,732.853149 958.407288,737.662720 954.039612,742.627869 
	C945.469849,752.369995 937.020142,762.217773 928.024475,772.539490 
z"/>
<path fill="#EE1419" opacity="1.000000" stroke="none" 
	d="
M1511.735107,330.592163 
	C1535.090820,354.410095 1557.046021,379.405609 1577.506592,405.802765 
	C1608.579712,445.891693 1635.036255,488.771790 1657.353271,534.232300 
	C1682.178589,584.801880 1701.511719,637.438843 1713.797119,692.431763 
	C1719.857422,719.559448 1724.514648,747.047485 1728.607544,774.550903 
	C1731.210815,792.044312 1731.761597,809.855347 1732.950806,827.542908 
	C1733.795776,840.113403 1734.170532,852.715454 1734.771606,865.656494 
	C1608.281372,865.656494 1482.059692,865.656494 1355.109985,865.656494 
	C1352.480835,762.514465 1316.665527,673.050171 1243.306396,598.937744 
	C1244.181885,597.506958 1244.931396,596.613708 1245.752808,595.792297 
	C1333.121582,508.414978 1420.494263,421.041504 1507.886108,333.687195 
	C1509.043701,332.530090 1510.446655,331.618408 1511.735107,330.592163 
z"/>
<path fill="#6EC733" opacity="1.000000" stroke="none" 
	d="
M707.991455,598.882629 
	C700.553833,607.135315 693.013794,615.298340 685.699463,623.658875 
	C669.519836,642.152710 655.991699,662.506042 643.957703,683.880981 
	C628.351135,711.601624 616.390930,740.869263 608.760742,771.705750 
	C604.531006,788.799866 601.605713,806.277344 599.151672,823.730957 
	C597.219360,837.474487 596.907776,851.445923 595.849609,865.674438 
	C470.072906,865.674438 343.870758,865.674438 217.982849,865.674438 
	C217.982849,852.843018 217.833923,840.144287 218.040466,827.451416 
	C218.158417,820.202698 218.710388,812.950928 219.329483,805.723083 
	C220.065506,797.130310 220.998657,788.551697 222.003571,779.985413 
	C222.952789,771.894043 223.970703,763.805969 225.200607,755.753418 
	C227.086945,743.402832 228.795990,731.005432 231.288361,718.772217 
	C234.127960,704.834778 237.428406,690.970886 241.108841,677.230530 
	C245.156464,662.119324 249.753036,647.151062 254.308670,632.180908 
	C262.943237,603.807129 273.980133,576.292908 286.489288,549.483887 
	C305.134277,509.524841 326.615631,471.046021 352.340424,435.137329 
	C364.291473,418.455139 376.790100,402.123230 389.791534,386.247589 
	C402.294067,370.981201 415.712524,356.460999 428.849365,341.720642 
	C432.161652,338.004089 435.935760,334.699066 440.095581,331.293152 
	C441.182800,331.833374 441.688416,332.269012 442.159058,332.739624 
	C529.886414,420.462158 617.611877,508.186615 705.329834,595.918518 
	C706.267334,596.856262 707.106384,597.892456 707.991455,598.882629 
z"/>
<path fill="#BCD238" opacity="1.000000" stroke="none" 
	d="
M708.298706,598.770874 
	C707.106384,597.892456 706.267334,596.856262 705.329834,595.918518 
	C617.611877,508.186615 529.886414,420.462158 442.159058,332.739624 
	C441.688416,332.269012 441.182800,331.833374 440.426086,331.206665 
	C449.254700,322.102051 458.202332,313.014191 467.491150,304.289551 
	C475.746094,296.535980 484.155334,288.912170 492.905365,281.729218 
	C502.711548,273.679230 512.803467,265.948792 523.085022,258.513550 
	C537.310303,248.226334 551.542969,237.902069 566.281921,228.382477 
	C596.004700,209.185150 626.917480,192.031067 659.425049,177.994141 
	C681.940002,168.272034 704.506042,158.497772 727.621948,150.377304 
	C762.898987,137.984741 799.009094,128.213989 835.963318,122.120026 
	C858.653198,118.378334 881.410095,114.673126 904.284729,112.525192 
	C927.438416,110.351059 950.774170,110.115898 974.508362,109.550003 
	C974.991821,199.288620 974.990845,288.508667 975.005554,377.728699 
	C975.011536,414.181915 975.051636,450.635101 975.075317,487.257935 
	C975.063782,487.650909 975.053406,487.874268 975.043213,488.097656 
	C972.081909,488.349060 969.116943,488.563263 966.159973,488.857910 
	C949.503662,490.517670 932.842773,492.135284 916.195679,493.883575 
	C890.408813,496.591827 865.813904,504.141083 841.626648,512.993286 
	C808.012512,525.295532 776.828125,542.314453 748.523071,564.192566 
	C734.634583,574.927490 721.875916,587.124084 708.298706,598.770874 
z"/>
<path fill="#FDB037" opacity="1.000000" stroke="none" 
	d="
M975.474487,488.284393 
	C975.053406,487.874268 975.063782,487.650909 975.353149,486.939362 
	C975.753357,484.302948 975.980652,482.154755 975.981262,480.006531 
	C976.015137,356.388855 976.030334,232.771210 976.047302,109.153549 
	C996.813843,110.090279 1017.597046,110.760612 1038.340942,112.058601 
	C1051.878174,112.905655 1065.407104,114.298470 1078.854492,116.087158 
	C1110.786133,120.334457 1142.550781,125.907310 1173.383545,135.228790 
	C1203.345093,144.286896 1233.186890,154.027191 1262.363525,165.321960 
	C1297.258057,178.830185 1330.907593,195.355820 1362.638428,215.327286 
	C1384.880981,229.326843 1406.915283,243.747742 1428.213013,259.129120 
	C1445.109131,271.331696 1460.968994,285.015564 1476.870361,298.534119 
	C1488.762695,308.644440 1499.988037,319.539337 1511.622803,330.338501 
	C1510.446655,331.618408 1509.043701,332.530090 1507.886108,333.687195 
	C1420.494263,421.041504 1333.121582,508.414978 1245.752808,595.792297 
	C1244.931396,596.613708 1244.181885,597.506958 1243.191406,598.615723 
	C1237.593262,594.013489 1232.361816,588.969482 1226.776367,584.353577 
	C1216.994385,576.269348 1207.097046,568.316223 1197.063965,560.545959 
	C1180.408447,547.646790 1162.353149,536.831360 1143.314819,528.027344 
	C1125.584351,519.828186 1107.415771,512.256592 1088.829102,506.322235 
	C1071.711426,500.856995 1053.884888,497.379425 1036.173462,494.086945 
	C1023.845398,491.795105 1011.192993,491.199493 998.668091,490.032898 
	C991.097839,489.327789 983.494385,488.979645 975.474487,488.284393 
z"/>
<path fill="#757479" opacity="1.000000" stroke="none" 
	d="
M928.272583,772.280640 
	C937.020142,762.217773 945.469849,752.369995 954.039612,742.627869 
	C958.407288,737.662720 962.954285,732.853149 967.485657,728.034851 
	C972.580566,722.617310 977.801636,717.317932 982.874756,711.880249 
	C992.360229,701.713196 1001.605408,691.316284 1011.264221,681.318054 
	C1026.616699,665.425903 1042.262329,649.817444 1057.705566,634.012329 
	C1062.334106,629.275269 1066.609741,624.194275 1071.215820,619.434265 
	C1075.281372,615.233032 1080.546509,614.099365 1085.211060,616.282471 
	C1090.164917,618.600891 1092.060059,622.887512 1091.845703,628.066711 
	C1090.966309,649.303528 1089.959961,670.535095 1089.016724,691.769348 
	C1088.655640,699.899170 1088.446045,708.037109 1087.980713,716.160706 
	C1086.718872,738.193848 1085.429932,760.226013 1084.008057,782.249268 
	C1083.143188,795.645691 1082.306030,809.055054 1080.939697,822.405701 
	C1078.101440,850.139404 1076.124390,878.058289 1067.978882,904.929321 
	C1060.704468,928.926819 1045.014282,946.310181 1023.564392,958.657776 
	C1007.223022,968.064697 989.431641,972.901672 970.632935,971.838684 
	C949.962402,970.669983 930.999268,964.147583 914.519348,950.932434 
	C901.281555,940.317139 890.658508,927.731262 884.436951,911.991333 
	C881.114746,903.586548 878.950195,894.601685 877.332581,885.684631 
	C876.049011,878.608948 875.407166,871.127014 876.210205,864.020935 
	C878.088562,847.398499 882.846130,831.437195 892.927795,817.802734 
	C903.300964,803.773865 914.420776,790.297363 925.195435,776.564636 
	C926.206299,775.276184 927.084656,773.883728 928.272583,772.280640 
M1003.443665,828.001160 
	C985.241699,816.454590 966.578918,815.689392 948.540283,827.511292 
	C931.109070,838.935120 923.702698,855.737427 926.891724,876.536804 
	C930.305908,898.804626 948.205872,915.395569 970.809448,917.840271 
	C992.301697,920.164795 1013.833374,906.722717 1021.733582,886.048767 
	C1029.693481,865.218201 1022.446899,841.615356 1003.443665,828.001160 
z"/>
<path fill="#E9CD65" opacity="1.000000" stroke="none" 
	d="
M975.774048,109.113327 
	C976.030334,232.771210 976.015137,356.388855 975.981262,480.006531 
	C975.980652,482.154755 975.753357,484.302948 975.354004,486.769714 
	C975.051636,450.635101 975.011536,414.181915 975.005554,377.728699 
	C974.990845,288.508667 974.991821,199.288620 974.970459,109.611473 
	C975.136536,109.127274 975.318665,109.100189 975.774048,109.113327 
z"/>
<path fill="#FEFEFE" opacity="1.000000" stroke="none" 
	d="
M1003.740662,828.206421 
	C1022.446899,841.615356 1029.693481,865.218201 1021.733582,886.048767 
	C1013.833374,906.722717 992.301697,920.164795 970.809448,917.840271 
	C948.205872,915.395569 930.305908,898.804626 926.891724,876.536804 
	C923.702698,855.737427 931.109070,838.935120 948.540283,827.511292 
	C966.578918,815.689392 985.241699,816.454590 1003.740662,828.206421 
z"/>
</svg>