<svg version="1.1" id="Layer_1" xmlns="http://www.w3.org/2000/svg" xmlns:xlink="http://www.w3.org/1999/xlink" x="0px" y="0px"
	 width="100%" viewBox="0 0 1920 1080" enable-background="new 0 0 1920 1080" xml:space="preserve">
<path fill="#FFFFFF" opacity="1.000000" stroke="none" 
	d="
M1235.000000,1081.000000 
	C823.333435,1081.000000 412.166809,1081.000000 1.000165,1081.000000 
	C1.000110,721.000122 1.000110,361.000275 1.000055,1.000310 
	C640.999756,1.000207 1280.999512,1.000207 1920.999512,1.000103 
	C1920.999634,360.999664 1920.999634,720.999329 1920.999756,1080.999512 
	C1692.500000,1081.000000 1464.000000,1081.000000 1235.000000,1081.000000 
M1123.035278,399.505127 
	C1102.143311,371.159332 1070.150513,359.185181 1037.867188,368.091736 
	C1033.026489,369.427216 1031.121826,368.307098 1028.658691,364.235321 
	C1013.005676,338.359985 989.886353,324.659973 959.594788,325.198242 
	C929.547791,325.732147 906.988647,340.029663 892.083374,366.104858 
	C890.357666,369.123871 888.853638,369.239014 885.788940,368.526123 
	C879.492676,367.061554 873.062073,365.610382 866.638000,365.347534 
	C813.607117,363.178009 773.805969,413.926331 788.365356,465.113007 
	C789.454773,468.943024 788.763062,470.405426 785.380493,472.399719 
	C759.940186,487.399200 745.625427,509.621674 745.167908,539.331726 
	C744.695923,569.977478 758.436218,593.408936 784.685547,609.216614 
	C788.448547,611.482605 789.385925,613.063110 788.235962,617.585388 
	C780.786499,646.881226 787.291443,673.005920 808.973267,694.139893 
	C830.421570,715.046204 856.395630,721.396912 885.463379,713.610718 
	C889.054993,712.648621 890.527222,713.176758 892.401001,716.451782 
	C906.293274,740.732422 927.286255,754.962280 955.190735,756.691772 
	C988.290466,758.743164 1013.428284,744.485779 1030.010498,715.669067 
	C1031.656250,712.809021 1033.160400,712.651367 1035.964233,713.426025 
	C1040.270264,714.615662 1044.687744,715.609802 1049.122803,716.092407 
	C1104.932129,722.165344 1148.743408,670.972351 1133.723999,617.155579 
	C1132.641357,613.276123 1133.087402,611.553894 1136.758667,609.397583 
	C1161.714111,594.740234 1175.965820,572.852722 1176.758423,543.861450 
	C1177.628052,512.057617 1163.467041,487.839691 1135.715942,471.916534 
	C1133.343872,470.555511 1132.297607,469.399292 1133.171265,466.509430 
	C1140.315308,442.877502 1136.417480,420.806458 1123.035278,399.505127 
z"/>
<path fill="#1D9BF0" opacity="1.000000" stroke="none" 
	d="
M1123.251709,399.793945 
	C1136.417480,420.806458 1140.315308,442.877502 1133.171265,466.509430 
	C1132.297607,469.399292 1133.343872,470.555511 1135.715942,471.916534 
	C1163.467041,487.839691 1177.628052,512.057617 1176.758423,543.861450 
	C1175.965820,572.852722 1161.714111,594.740234 1136.758667,609.397583 
	C1133.087402,611.553894 1132.641357,613.276123 1133.723999,617.155579 
	C1148.743408,670.972351 1104.932129,722.165344 1049.122803,716.092407 
	C1044.687744,715.609802 1040.270264,714.615662 1035.964233,713.426025 
	C1033.160400,712.651367 1031.656250,712.809021 1030.010498,715.669067 
	C1013.428284,744.485779 988.290466,758.743164 955.190735,756.691772 
	C927.286255,754.962280 906.293274,740.732422 892.401001,716.451782 
	C890.527222,713.176758 889.054993,712.648621 885.463379,713.610718 
	C856.395630,721.396912 830.421570,715.046204 808.973267,694.139893 
	C787.291443,673.005920 780.786499,646.881226 788.235962,617.585388 
	C789.385925,613.063110 788.448547,611.482605 784.685547,609.216614 
	C758.436218,593.408936 744.695923,569.977478 745.167908,539.331726 
	C745.625427,509.621674 759.940186,487.399200 785.380493,472.399719 
	C788.763062,470.405426 789.454773,468.943024 788.365356,465.113007 
	C773.805969,413.926331 813.607117,363.178009 866.638000,365.347534 
	C873.062073,365.610382 879.492676,367.061554 885.788940,368.526123 
	C888.853638,369.239014 890.357666,369.123871 892.083374,366.104858 
	C906.988647,340.029663 929.547791,325.732147 959.594788,325.198242 
	C989.886353,324.659973 1013.005676,338.359985 1028.658691,364.235321 
	C1031.121826,368.307098 1033.026489,369.427216 1037.867188,368.091736 
	C1070.150513,359.185181 1102.143311,371.159332 1123.251709,399.793945 
M869.493591,559.012268 
	C889.761841,580.589111 910.030090,602.165955 929.690552,623.095825 
	C975.753601,577.094543 1021.528076,531.381348 1066.587769,486.381989 
	C1057.728882,477.400024 1048.537231,468.080780 1039.105103,458.517670 
	C1003.440979,494.165070 967.527100,530.062073 931.328430,566.243713 
	C924.107361,558.571594 916.940552,550.952393 909.768250,543.338135 
	C902.497925,535.619812 895.222229,527.906494 887.793701,520.026367 
	C877.834045,529.438049 868.336365,538.413208 858.671143,547.546631 
	C862.388123,551.486572 865.695923,554.992859 869.493591,559.012268 
z"/>
<path fill="#FDFEFF" opacity="1.000000" stroke="none" 
	d="
M869.248657,558.755737 
	C865.695923,554.992859 862.388123,551.486572 858.671143,547.546631 
	C868.336365,538.413208 877.834045,529.438049 887.793701,520.026367 
	C895.222229,527.906494 902.497925,535.619812 909.768250,543.338135 
	C916.940552,550.952393 924.107361,558.571594 931.328430,566.243713 
	C967.527100,530.062073 1003.440979,494.165070 1039.105103,458.517670 
	C1048.537231,468.080780 1057.728882,477.400024 1066.587769,486.381989 
	C1021.528076,531.381348 975.753601,577.094543 929.690552,623.095825 
	C910.030090,602.165955 889.761841,580.589111 869.248657,558.755737 
z"/>
</svg>