<svg xmlns="http://www.w3.org/2000/svg" xmlns:xlink="http://www.w3.org/1999/xlink" width="1920" zoomAndPan="magnify" viewBox="0 0 1440 809.999993" height="1080" preserveAspectRatio="xMidYMid meet" version="1.0"><rect x="-144" width="1728" fill="#ffffff" y="-80.999999" height="971.999992" fill-opacity="1"/><rect x="-144" width="1728" fill="#ffffff" y="-80.999999" height="971.999992" fill-opacity="1"/><path fill="#ee1419" d="M 1015.734375 648.765625 L 1300.273438 648.765625 C 1299.886719 491.683594 1235.882812 349.5625 1132.65625 246.808594 L 931.457031 448.03125 C 983.191406 499.292969 1015.347656 570.269531 1015.734375 648.765625 " fill-opacity="1" fill-rule="nonzero"/><path fill="#fdb037" d="M 731.21875 365.621094 C 809.308594 365.621094 880.039062 397.09375 931.457031 448.03125 L 1132.65625 246.808594 C 1029.75 144.371094 887.878906 81.054688 731.21875 81.054688 C 731.058594 81.054688 730.902344 81.054688 730.742188 81.054688 L 730.742188 365.625 C 730.902344 365.625 731.058594 365.621094 731.21875 365.621094 " fill-opacity="1" fill-rule="nonzero"/><path fill="#bcd238" d="M 730.742188 365.625 L 730.742188 81.054688 C 574.03125 81.183594 432.144531 144.667969 329.308594 247.28125 L 530.503906 448.5 C 581.851562 397.386719 652.605469 365.753906 730.742188 365.625 " fill-opacity="1" fill-rule="nonzero"/><path fill="#6ec733" d="M 530.503906 448.5 L 329.308594 247.28125 C 226.363281 349.996094 162.546875 491.929688 162.164062 648.765625 L 446.707031 648.765625 C 447.089844 570.507812 479.046875 499.722656 530.503906 448.5 " fill-opacity="1" fill-rule="nonzero"/><path fill="#747378" d="M 701.503906 721.917969 C 663.851562 705.792969 646.40625 662.191406 662.53125 624.539062 C 675.441406 594.394531 767.738281 499.648438 804.027344 463.0625 C 809.296875 457.753906 818.332031 461.625 818.125 469.101562 C 816.683594 520.613281 811.785156 652.800781 798.871094 682.945312 C 782.746094 720.601562 739.152344 738.050781 701.503906 721.917969 " fill-opacity="1" fill-rule="nonzero"/><path fill="#ffffff" d="M 767.941406 650.707031 C 767.941406 671.183594 751.335938 687.789062 730.859375 687.789062 C 710.378906 687.789062 693.777344 671.183594 693.777344 650.707031 C 693.777344 630.222656 710.378906 613.621094 730.859375 613.621094 C 751.335938 613.621094 767.941406 630.222656 767.941406 650.707031 " fill-opacity="1" fill-rule="nonzero"/></svg>